<?xml version="1.0" encoding="UTF-8"?><svg xmlns="http://www.w3.org/2000/svg" viewBox="0 0 1000 500"><defs><style>.g{fill:#414042;}.g,.h{stroke:#808285;}.g,.h,.i{stroke-miterlimit:10;}.j{fill:#939598;}.h{fill:#d1d3d4;font-family:TrebuchetMS-Bold, 'Trebuchet MS';font-size:135px;font-weight:700;}.i{fill:#58595b;stroke:#939598;}</style></defs><g id="a"><g id="b"><g id="c"><path class="g" d="M501.96,17.91c16.52,0,20.51-3.34,35.77,2.98,15.27,6.32,5.84,29.07,21.11,35.39s16.93,2.3,32.2,8.63c15.27,6.32,24.31-8.06,36,3.63,11.68,11.68,19.27,11.63,25.59,26.9,6.32,15.27-13.25,23.37-6.92,38.64,6.32,15.27,11.91,12.95,18.24,28.22s1.19,14.8,1.19,31.33,18.52,21.6,12.2,36.87c-6.32,15.27-31.9,4.67-38.23,19.94-6.32,15.27,2.15,18.78-4.17,34.05s.36,19.11-11.33,30.79c-11.68,11.68-16.33,3.05-31.6,9.37-15.27,6.32-12.95,11.92-28.21,18.24-15.27,6.32-19.93-4.94-35.2,1.39s-10.1,19.01-26.63,19.01-19.7,7.45-34.97,1.13-5.95-28.8-21.22-35.13c-15.27-6.32-15.64-5.43-30.91-11.75s-20.18,6.75-31.87-4.94-9.78-11.98-16.1-27.24c-6.32-15.27-1.87-17.11-8.19-32.38s-26.44-6.93-32.77-22.2c-6.33-15.28-4.27-20.63-4.27-37.15s15.88-14.44,22.2-29.71,1.34-17.33,7.66-32.6,13.66-12.23,19.98-27.5-11.24-28.51.44-40.2,28.14,13.63,43.4,7.3c15.27-6.32,3.88-33.81,19.14-40.14,15.27-6.32,26.33,16.92,40.28,8.06,14.86-9.43,10.64-20.94,27.17-20.94h.02Z"/></g><path id="d" class="i" d="M484.47,330.89c-24.2-3.1-47.34-12.75-67.54-28.15-6.59-5.02-18.95-17.46-24.34-24.5-15.11-19.71-24.5-42.08-27.6-65.72-1.33-10.12-1.32-28.73,0-37.98,6.67-46.25,35.78-85.92,77.57-105.72,19.44-9.21,37.23-13.11,59.83-13.11,36.55,0,68.99,13.09,95.28,38.46,12.66,12.22,21.16,23.81,28.43,38.8,9.84,20.27,13.82,37.91,13.82,61.18,0,30.63-8.85,57.35-27.22,82.2-5.46,7.38-16.13,18.6-23.2,24.4-19.41,15.91-44.16,26.68-68.72,29.9-8.48,1.11-28.53,1.25-36.32.25h0ZM535.68,306.07c14.78-4.66,26.83-10.92,38.46-19.99,6.18-4.82,16.87-15.61,21.35-21.56,12.16-16.12,20.43-36.32,22.86-55.83,1.17-9.39.49-29.27-1.3-37.89-4.74-22.85-14.95-42.15-31.04-58.67-10.03-10.3-19.16-17.08-30.91-22.97-17.83-8.94-33.1-12.55-53.16-12.57-21.24-.02-39.86,4.85-58.29,15.24-16.78,9.46-34.12,26.82-43.62,43.67-7,12.41-12.12,27.13-14.12,40.59-1.31,8.82-1.34,26.34-.05,34.79,2.57,16.91,8.98,33.62,18.28,47.63,5.08,7.65,4.92,7.57,9.4,5.01,8.01-4.58,10.1-6.8,14.46-15.35,5.1-10,10.56-18.74,15.49-24.8,5.69-7.01,6.47-8.25,9.33-14.87,1.44-3.33,4.01-8.22,5.73-10.86l3.12-4.81-4.03-3.96c-5.35-5.26-9.81-11.23-10.64-14.26-.86-3.1.15-4.83,4.18-7.15,4.07-2.35,6.97-3.02,17.84-4.14,5.29-.54,11.04-1.54,12.85-2.23,1.8-.68,7.18-3.61,11.95-6.51,13.79-8.36,14.95-8.79,23.22-8.61,4.65.1,8.36-.68,11.13-2.35,8.67-5.24,21.13-14.7,37.52-28.5,3.14-2.64,6.17-4.72,6.73-4.61,2.32.45,6.58,10.9,7.22,17.73.39,4.14-.41,8.24-2.87,14.65-.67,1.75-.98,3.42-.69,3.71.7.7,3.11-2.31,3.11-3.89,0-2.01,1.33-2.24,3.14-.54,1.32,1.24,2.45,1.59,5.1,1.59,2.89,0,3.61.27,4.74,1.77,1.92,2.56,2.36,9.52.9,13.94-1.43,4.29-5.74,9.25-9.65,11.08-3.5,1.65-10.59,8.56-13.9,13.57-1.27,1.92-3.65,5.92-5.29,8.88-1.64,2.97-4.39,7.45-6.11,9.97-3.39,4.95-6.29,11.84-9.09,21.61-1.65,5.74-1.78,7.23-1.85,20.03-.08,15.46-.88,19.26-5.06,24.02-4.75,5.41-9.5,17.3-9.9,24.79-.25,4.73-.98,9.34-2.02,12.76-.46,1.5.4,1.49,5.47-.11h.01Z"/><path id="e" class="j" d="M507.51,162.46l6.23-7.98,10.03-1.41-6.23,7.98-10.03,1.41Z"/></g></g><g id="f"><text class="h" transform="translate(271.13 479.08)"><tspan x="0" y="0">LibreUI</tspan></text></g></svg>