<?xml version="1.0" encoding="UTF-8"?><svg id="Layer_1" xmlns="http://www.w3.org/2000/svg" viewBox="0 0 353.64 365.74"><defs><style>.cls-1{fill:#fff;}.cls-2{fill:#f57e20;}</style></defs><g id="layer1"><g id="path875"><path class="cls-2" d="M181.75,4.46c11.02,0,16.47-7.38,26.64-3.16,10.18,4.22-1.13,31.51,9.05,35.73s12.18-.61,22.35,3.61,15.11-7.69,25.29-3.47,16.16-10.23,26.34-6.02,1.29,23.09,9.08,30.88c7.79,7.79,9.89,5.85,14.1,16.02,4.22,10.18-8.67,15.51-4.45,25.69,4.22,10.18,33.16-1.81,37.37,8.37,4.22,10.18-26.48,22.89-22.26,33.07s14.39,5.97,18.61,16.14c4.22,10.18,9.77,8.44,9.77,19.46s-7.9,8.31-12.11,18.48c-4.22,10.18,2.5,12.96-1.72,23.14s-17.73,4.58-21.94,14.76,3.69,13.45-.52,23.63c-4.22,10.18,12.03,16.91,7.82,27.09s-24.3-3.57-32.09,4.22-4.77,1.97-14.95,6.19c-10.18,4.22-6.83,12.3-17.01,16.51s-7.98,9.53-18.15,13.75c-10.18,4.22-12.39-1.13-22.57,3.08-10.18,4.22-.18,28.36-10.36,32.57-10.18,4.22-17.27-1.62-28.28-1.62-11.02,0-9.19-15.68-19.37-19.9s-12.66,1.77-22.83-2.45c-10.18-4.22-6.53-13.02-16.71-17.23-10.18-4.22-17.44,13.32-27.62,9.11s.94-31.05-9.24-35.27c-10.18-4.22-32.72,28.01-40.51,20.22s16.89-27.21,12.68-37.39-25.84-1.22-30.05-11.4c-4.22-10.18,17.92-19.35,13.7-29.52s-6.84-9.09-11.05-19.27c-4.22-10.18-24.81-1.65-29.03-11.83s.69-15.86.69-26.88,16.69-7.75,20.91-17.93,11.87-7.01,16.09-17.18-7.71-15.12-3.49-25.29-.79-12.25,3.43-22.43,23.55-2.17,27.77-12.35-29.2-33.08-21.41-40.87c7.79-7.79,20.73,1.57,30.91-2.64,10.18-4.22,15.96,9.74,26.13,5.52,10.18-4.22,6.3-13.58,16.47-17.8s8.42-8.45,18.6-12.67,12.89,3.25,21.96-3c10.03-6.91,10.96-9.67,21.98-9.67Z"/></g><path id="path847" class="cls-1" d="M164.26,318.04c-24.2-3.1-47.34-12.75-67.54-28.15-6.59-5.02-18.95-17.46-24.34-24.5-15.11-19.71-24.5-42.08-27.6-65.72-1.33-10.12-1.32-28.73.01-37.98,6.67-46.25,35.78-85.92,77.57-105.72,19.44-9.21,37.23-13.11,59.83-13.11,36.55,0,68.99,13.09,95.28,38.46,12.66,12.22,21.16,23.81,28.43,38.8,9.84,20.27,13.82,37.91,13.82,61.18,0,30.63-8.85,57.35-27.22,82.2-5.46,7.38-16.13,18.6-23.2,24.4-19.41,15.91-44.16,26.68-68.72,29.9-8.48,1.11-28.53,1.25-36.32.25h0ZM215.47,293.22c14.78-4.66,26.83-10.92,38.46-19.99,6.18-4.82,16.87-15.61,21.35-21.56,12.16-16.12,20.43-36.32,22.86-55.83,1.17-9.39.49-29.27-1.3-37.89-4.74-22.85-14.95-42.15-31.04-58.67-10.03-10.3-19.16-17.08-30.91-22.97-17.83-8.94-33.1-12.55-53.16-12.57-21.24-.02-39.86,4.85-58.29,15.24-16.78,9.46-34.12,26.82-43.62,43.67-7,12.41-12.12,27.13-14.12,40.59-1.31,8.82-1.34,26.34-.05,34.79,2.57,16.91,8.98,33.62,18.28,47.63,5.08,7.65,4.92,7.57,9.4,5.01,8.01-4.58,10.1-6.8,14.46-15.35,5.1-10,10.56-18.74,15.49-24.8,5.69-7.01,6.47-8.25,9.33-14.87,1.44-3.33,4.01-8.22,5.73-10.86l3.12-4.81-4.03-3.96c-5.35-5.26-9.81-11.23-10.64-14.26-.86-3.1.15-4.83,4.18-7.15,4.07-2.35,6.97-3.02,17.84-4.14,5.29-.54,11.04-1.54,12.85-2.23,1.8-.68,7.18-3.61,11.95-6.51,13.79-8.36,14.95-8.79,23.22-8.61q6.98.15,11.13-2.35c8.67-5.24,21.13-14.7,37.52-28.5,3.14-2.64,6.17-4.72,6.73-4.61,2.32.45,6.58,10.9,7.22,17.73.39,4.14-.41,8.24-2.87,14.65-.67,1.75-.98,3.42-.69,3.71.7.7,3.11-2.31,3.11-3.89,0-2.01,1.33-2.24,3.14-.54,1.32,1.24,2.45,1.59,5.1,1.59,2.89,0,3.61.27,4.74,1.77,1.92,2.56,2.36,9.52.9,13.94-1.43,4.29-5.74,9.25-9.65,11.08-3.5,1.65-10.59,8.56-13.9,13.57-1.27,1.92-3.65,5.92-5.29,8.88-1.64,2.97-4.39,7.45-6.11,9.97-3.39,4.95-6.29,11.84-9.09,21.61-1.65,5.74-1.78,7.23-1.85,20.03-.08,15.46-.88,19.26-5.06,24.02-4.75,5.41-9.5,17.3-9.9,24.79-.25,4.73-.98,9.34-2.02,12.76-.46,1.5.4,1.49,5.47-.11h0Z"/><path id="path814" class="cls-2" d="M187.3,149.61l6.23-7.98,10.03-1.41-6.23,7.98-10.03,1.41Z"/></g></svg>