<?xml version="1.0" encoding="UTF-8"?><svg id="a" xmlns="http://www.w3.org/2000/svg" viewBox="0 0 1000 250"><defs><style>.f{fill:#404041;}.f,.g,.h{stroke-miterlimit:10;}.f,.h{stroke:#808184;}.i{fill:#929497;}.g{fill:#58595b;stroke:#929497;}.h{fill:#d0d2d3;font-family:TrebuchetMS-Bold, 'Trebuchet MS';font-size:72.08px;font-weight:700;}</style></defs><g id="b"><g id="c"><path class="f" d="M500.8,11.65c6.75,0,8.38-1.36,14.61,1.22,6.24,2.58,2.38,11.87,8.62,14.45,6.24,2.58,6.91.94,13.15,3.52,6.24,2.58,9.93-3.29,14.7,1.48,4.77,4.77,7.87,4.75,10.45,10.99,2.58,6.24-5.41,9.54-2.83,15.78,2.58,6.24,4.86,5.29,7.45,11.52s.49,6.04.49,12.79,7.56,8.82,4.98,15.06c-2.58,6.24-13.03,1.91-15.61,8.14-2.58,6.24.88,7.67-1.7,13.91-2.58,6.24.15,7.8-4.63,12.57-4.77,4.77-6.67,1.25-12.91,3.83-6.24,2.58-5.29,4.87-11.52,7.45-6.24,2.58-8.14-2.02-14.38.57s-4.12,7.76-10.88,7.76-8.05,3.04-14.28.46c-6.24-2.58-2.43-11.76-8.67-14.35-6.24-2.58-6.39-2.22-12.62-4.8s-8.24,2.76-13.02-2.02-3.99-4.89-6.58-11.12c-2.58-6.24-.76-6.99-3.34-13.22s-10.8-2.83-13.38-9.07c-2.59-6.24-1.74-8.43-1.74-15.17s6.49-5.9,9.07-12.13.55-7.08,3.13-13.31,5.58-4.99,8.16-11.23-4.59-11.64.18-16.42,11.49,5.57,17.72,2.98c6.24-2.58,1.58-13.81,7.82-16.39,6.24-2.58,10.75,6.91,16.45,3.29,6.07-3.85,4.35-8.55,11.1-8.55h0Z"/></g><path id="d" class="g" d="M493.66,139.47c-9.88-1.27-19.33-5.21-27.58-11.5-2.69-2.05-7.74-7.13-9.94-10.01-6.17-8.05-10.01-17.19-11.27-26.84-.54-4.13-.54-11.73,0-15.51,2.72-18.89,14.61-35.09,31.68-43.18,7.94-3.76,15.2-5.35,24.43-5.35,14.93,0,28.17,5.35,38.91,15.71,5.17,4.99,8.64,9.72,11.61,15.85,4.02,8.28,5.64,15.48,5.64,24.99,0,12.51-3.61,23.42-11.12,33.57-2.23,3.01-6.59,7.6-9.47,9.96-7.93,6.5-18.03,10.9-28.06,12.21-3.46.45-11.65.51-14.83.1h0ZM514.57,129.34c6.04-1.9,10.96-4.46,15.71-8.16,2.52-1.97,6.89-6.37,8.72-8.8,4.97-6.58,8.34-14.83,9.34-22.8.48-3.83.2-11.95-.53-15.47-1.94-9.33-6.11-17.21-12.68-23.96-4.1-4.21-7.82-6.98-12.62-9.38-7.28-3.65-13.52-5.13-21.71-5.13-8.67,0-16.28,1.98-23.81,6.22-6.85,3.86-13.93,10.95-17.81,17.83-2.86,5.07-4.95,11.08-5.77,16.58-.53,3.6-.55,10.76-.02,14.21,1.05,6.91,3.67,13.73,7.47,19.45,2.07,3.12,2.01,3.09,3.84,2.05,3.27-1.87,4.12-2.78,5.91-6.27,2.08-4.08,4.31-7.65,6.33-10.13,2.32-2.86,2.64-3.37,3.81-6.07.59-1.36,1.64-3.36,2.34-4.44l1.27-1.96-1.65-1.62c-2.18-2.15-4.01-4.59-4.35-5.82-.35-1.27.06-1.97,1.71-2.92,1.66-.96,2.85-1.23,7.29-1.69,2.16-.22,4.51-.63,5.25-.91.74-.28,2.93-1.47,4.88-2.66,5.63-3.41,6.11-3.59,9.48-3.52,1.9.04,3.42-.28,4.55-.96,3.54-2.14,8.63-6,15.32-11.64,1.28-1.08,2.52-1.93,2.75-1.88.95.18,2.69,4.45,2.95,7.24.16,1.69-.17,3.37-1.17,5.98-.27.71-.4,1.4-.28,1.52.29.29,1.27-.94,1.27-1.59,0-.82.54-.91,1.28-.22.54.51,1,.65,2.08.65,1.18,0,1.47.11,1.94.72.78,1.05.96,3.89.37,5.69-.58,1.75-2.34,3.78-3.94,4.52-1.43.67-4.32,3.5-5.68,5.54-.52.78-1.49,2.42-2.16,3.63-.67,1.21-1.79,3.04-2.5,4.07-1.38,2.02-2.57,4.84-3.71,8.83-.67,2.34-.73,2.95-.76,8.18-.03,6.31-.36,7.87-2.07,9.81-1.94,2.21-3.88,7.07-4.04,10.12-.1,1.93-.4,3.81-.82,5.21-.19.61.16.61,2.23-.04h0Z"/><path id="e" class="i" d="M503.07,70.69l2.54-3.26,4.1-.58-2.54,3.26-4.1.58Z"/></g><text class="h" transform="translate(377.81 227.12)"><tspan x="0" y="0">LibreUI</tspan></text></svg>